<svg width="84" height="30" viewBox="0 0 84 30" fill="none" xmlns="http://www.w3.org/2000/svg">
<path d="M5.52667 20.9466L13.9212 3.66409C13.9212 3.66409 6.57596 7.00909 5.00199 10.9116C3.42802 14.8141 3.9271 18.4038 5.00201 20.9466" stroke="#499A18" stroke-linecap="round" stroke-linejoin="round"/>
<g filter="url(#filter0_dd_2_6)">
<path d="M4.99646 20.9925C4.99646 20.9925 30.7102 -8.60087 22.3157 4.2216C13.9212 17.0441 23.1707 6.63145 18.4973 14.0678C13.824 21.5041 4.99646 20.9925 4.99646 20.9925Z" stroke="#499A18" stroke-linejoin="round" shape-rendering="crispEdges"/>
</g>
<path d="M29.9264 9.84138C31.2811 9.84138 32.2837 10.0654 32.9344 10.5134C33.5957 10.9507 33.9264 11.7294 33.9264 12.8494C33.9264 13.9694 33.6011 14.86 32.9504 15.5214C32.2997 16.172 31.2491 16.4974 29.7984 16.4974H28.4544L28.4064 19.9694L29.6544 20.0814C29.6544 20.38 29.5637 20.7 29.3824 21.0414H25.7824L25.7344 20.4974C26.1824 20.3267 26.6411 20.1987 27.1104 20.1134C27.0464 15.9534 26.9931 12.86 26.9504 10.8334C26.6624 10.78 26.1931 10.652 25.5424 10.4494L25.6224 9.84138H29.9264ZM29.6384 15.4574C30.5557 15.4467 31.2544 15.2174 31.7344 14.7694C32.2144 14.3107 32.4544 13.708 32.4544 12.9614C32.4544 12.2147 32.2197 11.6974 31.7504 11.4094C31.2811 11.1107 30.5291 10.9614 29.4944 10.9614C29.3024 10.9614 28.9771 10.9667 28.5184 10.9774C28.5184 10.988 28.5024 12.4867 28.4704 15.4734L29.6384 15.4574ZM36.9855 9.15338C37.3162 9.15338 37.5508 9.16405 37.6895 9.18538C37.6895 9.55871 37.6202 9.98538 37.4815 10.4654C37.3855 16.7587 37.3375 19.9214 37.3375 19.9534L38.6815 20.0814C38.6815 20.38 38.5908 20.7 38.4095 21.0414H34.7295L34.6815 20.4814C35.1722 20.3107 35.6522 20.1827 36.1215 20.0974L35.9615 10.4174C35.3748 10.3854 34.9055 10.3214 34.5535 10.2254L34.6175 9.39338C35.1615 9.23338 35.9508 9.15338 36.9855 9.15338ZM45.9763 15.8094L45.8963 19.9374C46.3549 19.9694 46.8136 20.044 47.2723 20.1614L47.2403 20.7214C47.0696 20.8067 46.7603 20.9027 46.3123 21.0094C45.8749 21.1054 45.4429 21.1534 45.0163 21.1534C44.8243 20.7694 44.7176 20.4014 44.6963 20.0494C43.4803 20.8494 42.6269 21.2494 42.1363 21.2494C41.3789 21.2494 40.7709 21.0467 40.3123 20.6414C39.8536 20.236 39.6243 19.6707 39.6243 18.9454C39.6243 17.2707 40.6483 16.4067 42.6963 16.3534C43.8909 16.3214 44.4936 16.3054 44.5043 16.3054L44.4883 15.7614C44.4669 15.0254 44.3283 14.4974 44.0723 14.1774C43.8163 13.8467 43.3576 13.6814 42.6963 13.6814C42.4189 13.6814 42.1203 13.7454 41.8003 13.8734L41.4163 15.4734C41.3629 15.484 41.2723 15.4894 41.1443 15.4894L40.4883 15.4414C40.3176 14.9827 40.2269 14.348 40.2163 13.5374C40.4189 13.4307 40.8829 13.2707 41.6083 13.0574C42.3336 12.8334 42.7976 12.7214 43.0003 12.7214C44.0883 12.7214 44.8563 12.9614 45.3043 13.4414C45.7523 13.9214 45.9763 14.7107 45.9763 15.8094ZM42.4883 20.1614C42.7976 20.1614 43.5123 19.8147 44.6323 19.1214L44.5523 17.1214C43.8269 17.1854 43.2189 17.244 42.7283 17.2974C42.2376 17.3507 41.8429 17.4947 41.5443 17.7294C41.2456 17.9534 41.0963 18.3107 41.0963 18.8014C41.0963 19.708 41.5603 20.1614 42.4883 20.1614ZM53.1613 12.7214C54.1853 12.7214 54.9266 12.9774 55.3853 13.4894C55.8439 13.9907 56.0733 14.7587 56.0733 15.7934C56.0733 16.092 56.0306 17.4787 55.9453 19.9534L57.2893 20.0814C57.2893 20.38 57.1986 20.7 57.0173 21.0414H53.3373L53.2893 20.4814C53.7799 20.3107 54.2599 20.1827 54.7293 20.0974C54.6653 17.3027 54.6066 15.7507 54.5533 15.4414C54.5106 15.1214 54.4359 14.844 54.3293 14.6094C54.2226 14.3747 54.0626 14.2094 53.8493 14.1134C53.6359 14.0174 53.3533 13.9694 53.0013 13.9694C52.2973 13.9694 51.6146 14.14 50.9533 14.4814C50.8893 16.9134 50.8466 18.7374 50.8253 19.9534L52.1693 20.0814C52.1693 20.38 52.0786 20.7 51.8973 21.0414H48.2173L48.1693 20.4814C48.6599 20.3107 49.1399 20.1827 49.6093 20.0974C49.5453 17.388 49.4919 15.3827 49.4493 14.0814C48.8626 14.0494 48.3933 13.9854 48.0413 13.8894L48.1053 13.0574C48.6813 12.8974 49.5186 12.8174 50.6173 12.8174C50.7453 13.0094 50.8413 13.2867 50.9053 13.6494C51.3639 13.404 51.8226 13.1907 52.2813 13.0094C52.7506 12.8174 53.0439 12.7214 53.1613 12.7214ZM59.2126 20.0494L59.0846 14.0174H57.8526L57.8046 13.4574C57.9113 13.3827 58.2206 13.244 58.7326 13.0414L60.0446 10.9934C60.258 11.0147 60.4233 11.068 60.5406 11.1534L60.5246 12.9134C61.3246 12.9134 61.9806 12.9667 62.4926 13.0734C62.4926 13.3614 62.402 13.676 62.2206 14.0174H60.4926C60.4713 15.2974 60.45 17.2387 60.4286 19.8414C61.026 19.8734 61.6233 19.98 62.2206 20.1614L62.2046 20.7214C62.0553 20.8174 61.6713 20.9294 61.0526 21.0574C60.4446 21.1854 59.9433 21.2494 59.5486 21.2494C59.4953 21.164 59.426 20.9827 59.3406 20.7054C59.2553 20.4174 59.2126 20.1987 59.2126 20.0494ZM64.9191 20.0174C65.2925 20.1774 65.7458 20.2574 66.2791 20.2574C66.8231 20.2574 67.2498 20.156 67.5591 19.9534C67.8685 19.7507 68.0231 19.4734 68.0231 19.1214C68.0231 18.7694 67.8791 18.476 67.5911 18.2414C67.3031 18.0067 66.9511 17.7987 66.5351 17.6174C66.1191 17.436 65.7031 17.244 65.2871 17.0414C64.8711 16.8387 64.5191 16.572 64.2311 16.2414C63.9431 15.9107 63.7991 15.5267 63.7991 15.0894C63.7991 14.3534 64.0445 13.7774 64.5351 13.3614C65.0258 12.9347 65.7031 12.7214 66.5671 12.7214C67.4418 12.7214 68.2631 12.9187 69.0311 13.3134C69.0418 13.42 69.0471 13.708 69.0471 14.1774C69.0471 14.636 68.9991 15.0307 68.9031 15.3614C68.6471 15.4467 68.3431 15.4894 67.9911 15.4894L67.4631 13.8574C67.2285 13.74 66.9085 13.6814 66.5031 13.6814C66.1085 13.6814 65.7938 13.788 65.5591 14.0014C65.3245 14.204 65.2071 14.4654 65.2071 14.7854C65.2071 15.0947 65.3511 15.3667 65.6391 15.6014C65.9378 15.836 66.2951 16.0494 66.7111 16.2414C67.1271 16.4227 67.5431 16.62 67.9591 16.8334C68.3751 17.036 68.7271 17.308 69.0151 17.6494C69.3138 17.98 69.4631 18.364 69.4631 18.8014C69.4631 19.5694 69.1645 20.172 68.5671 20.6094C67.9805 21.036 67.2551 21.2494 66.3911 21.2494C65.9218 21.2494 65.4205 21.1747 64.8871 21.0254C64.3538 20.8654 63.9058 20.6627 63.5431 20.4174C63.5431 19.7027 63.6071 19.068 63.7351 18.5134C63.9805 18.4707 64.3111 18.4494 64.7271 18.4494L64.9191 20.0174Z" fill="black"/>
<defs>
<filter id="filter0_dd_2_6" x="0.49646" y="0.5" width="28.0035" height="29" filterUnits="userSpaceOnUse" color-interpolation-filters="sRGB">
<feFlood flood-opacity="0" result="BackgroundImageFix"/>
<feColorMatrix in="SourceAlpha" type="matrix" values="0 0 0 0 0 0 0 0 0 0 0 0 0 0 0 0 0 0 127 0" result="hardAlpha"/>
<feOffset dy="4"/>
<feGaussianBlur stdDeviation="2"/>
<feComposite in2="hardAlpha" operator="out"/>
<feColorMatrix type="matrix" values="0 0 0 0 0 0 0 0 0 0 0 0 0 0 0 0 0 0 0.25 0"/>
<feBlend mode="normal" in2="BackgroundImageFix" result="effect1_dropShadow_2_6"/>
<feColorMatrix in="SourceAlpha" type="matrix" values="0 0 0 0 0 0 0 0 0 0 0 0 0 0 0 0 0 0 127 0" result="hardAlpha"/>
<feOffset dy="4"/>
<feGaussianBlur stdDeviation="2"/>
<feComposite in2="hardAlpha" operator="out"/>
<feColorMatrix type="matrix" values="0 0 0 0 0 0 0 0 0 0 0 0 0 0 0 0 0 0 0.25 0"/>
<feBlend mode="normal" in2="effect1_dropShadow_2_6" result="effect2_dropShadow_2_6"/>
<feBlend mode="normal" in="SourceGraphic" in2="effect2_dropShadow_2_6" result="shape"/>
</filter>
</defs>
</svg>
